/vscmnt/brussel_pixiu_data/_data_brussel/112/vsc11236/PredSimResults/SUBJ04mtu3D/worker2.mot
version=1
nRows=6
nColumns=50
inDegrees=yes
endheader
                time	         pelvis_tilt	         pelvis_list	     pelvis_rotation	           pelvis_tx	           pelvis_ty	           pelvis_tz	       hip_flexion_r	     hip_adduction_r	      hip_rotation_r	        knee_angle_r	       ankle_angle_r	         mtp_angle_r	       hip_flexion_l	     hip_adduction_l	      hip_rotation_l	        knee_angle_l	       ankle_angle_l	         mtp_angle_l	    lumbar_extension	      lumbar_bending	     lumbar_rotation	 ercspn_r/activation	 intobl_r/activation	 extobl_r/activation	    abd_r/activation	    add_r/activation	hamstrings_r/activation	bifemsh_r/activation	glut_max_r/activation	iliopsoas_r/activation	rect_fem_r/activation	  vasti_r/activation	gastroc_r/activation	 soleus_r/activation	tib_ant_r/activation	 ercspn_l/activation	 intobl_l/activation	 extobl_l/activation	    abd_l/activation	    add_l/activation	hamstrings_l/activation	bifemsh_l/activation	glut_max_l/activation	iliopsoas_l/activation	rect_fem_l/activation	  vasti_l/activation	gastroc_l/activation	 soleus_l/activation	tib_ant_l/activation	
          1.32788537	         -2.53244025	          0.76631134	          7.39957777	          1.24821224	          0.88105287	         -0.01099105	         29.48112032	         -3.56361485	         -8.82421413	        -10.99098617	          4.93275435	          0.23540931	        -12.58938885	         -0.22506297	         -9.07719645	         -8.53152312	         11.38398970	         23.56084985	        -13.91874057	         -3.63909143	         -6.56689504	          0.03363699	          0.22869287	          0.02126189	          0.01085259	          0.29435822	          0.06861896	          0.05364722	          0.03105300	          0.14402068	          0.02227194	          0.01887993	          0.00999999	          0.01511538	          0.31794740	          0.03553532	          0.00999999	          0.00999999	          0.04897157	          0.00999999	          0.02040000	          0.17070565	          0.01491607	          0.01221313	          0.00999999	          0.00999999	          0.31857507	          0.23122568	          0.00999999	
          1.34116422	         -2.60284816	          0.76400904	          7.16011003	          1.26419071	          0.87888061	         -0.01043331	         29.35093782	         -3.44561689	         -8.93040449	        -12.45696995	          4.70491430	          0.22346170	        -13.28740980	         -0.34638133	         -9.74014988	         -9.12578129	         10.98554191	         24.97422752	        -13.43022519	         -3.02462116	         -6.63179973	          0.02754163	          0.23130708	          0.01740902	          0.02340473	          0.24101760	          0.06731655	          0.04392581	          0.05582793	          0.11792271	          0.01823604	          0.01545870	          0.01221313	          0.01237632	          0.34668112	          0.03795523	          0.00999999	          0.00999999	          0.04009744	          0.00999999	          0.01670332	          0.13977209	          0.01221313	          0.00999999	          0.00999999	          0.00999999	          0.29504424	          0.22315606	          0.00999999	
          1.35444307	         -2.65822950	          0.69931618	          6.87162692	          1.28047712	          0.87695539	         -0.00978954	         29.15702110	         -3.29258904	         -9.06407400	        -13.78690918	          4.24598542	          0.21679899	        -13.88210191	         -0.55000867	        -10.43560752	         -9.96331444	         10.49108431	         26.42277839	        -12.91651557	         -2.31883175	         -6.67097574	          0.02355128	          0.18939195	          0.01425434	          0.04444678	          0.22481510	          0.07027224	          0.03596602	          0.04571136	          0.09655394	          0.01493149	          0.07516826	          0.00999999	          0.01013361	          0.37625240	          0.04399543	          0.00999999	          0.00999999	          0.03283139	          0.00999999	          0.01367651	          0.11444401	          0.00999999	          0.01821721	          0.00999999	          0.00999999	          0.24461902	          0.20734783	          0.00999999	
          1.36772193	         -2.69948562	          0.59092312	          6.53443359	          1.29692538	          0.87545777	         -0.00903588	         28.90072360	         -3.10233194	         -9.28953587	        -15.01128705	          3.76140351	          0.19451978	        -14.31148566	         -0.82808294	        -11.16526341	        -11.13479839	          9.86414543	         27.88847724	        -12.40081295	         -1.54936065	         -6.68124259	          0.02527945	          0.15507225	          0.01167131	          0.06505248	          0.20641936	          0.07028896	          0.02944862	          0.03742801	          0.07905741	          0.01222576	          0.14236312	          0.00999999	          0.00999999	          0.40650836	          0.05380032	          0.00999999	          0.00999999	          0.02688201	          0.00999999	          0.01383365	          0.09370562	          0.00999999	          0.01491607	          0.00999999	          0.00999999	          0.20029163	          0.18899553	          0.00999999	
          1.38100078	         -2.72727872	          0.43734276	          6.16104144	          1.31343698	          0.87453364	         -0.00817447	         28.52247727	         -2.86140403	         -9.58745573	        -16.07846001	          3.47515629	          0.17128924	        -14.52670272	         -1.19693832	        -11.92254674	        -12.70604902	          9.06870223	         29.34727764	        -11.89533813	         -0.72104663	         -6.66174433	          0.02158809	          0.12697162	          0.00999999	          0.09758549	          0.18357909	          0.07143396	          0.02411224	          0.03543528	          0.06473143	          0.01001033	          0.18982477	          0.00999999	          0.00999999	          0.41420327	          0.07606006	          0.00999999	          0.00999999	          0.02201073	          0.00999999	          0.01591332	          0.07672523	          0.00999999	          0.01221313	          0.00999999	          0.00999999	          0.16399681	          0.15474767	          0.00999999	
          1.39427963	         -2.74343140	          0.23805260	          5.76668136	          1.32984088	          0.87433065	         -0.00721339	         28.02240242	         -2.55401121	         -9.87988220	        -16.97406792	          3.40944096	          0.15131962	        -14.46662445	         -1.67628521	        -12.69337130	        -14.75256230	          8.07455600	         30.74307497	        -11.41879136	          0.16089705	         -6.61729345	          0.01767611	          0.10396311	          0.00999999	          0.12278170	          0.17211637	          0.07061442	          0.01974286	          0.03295873	          0.05300145	          0.00999999	          0.21616931	          0.00999999	          0.00999999	          0.40759727	          0.09732161	          0.00999999	          0.00999999	          0.01802216	          0.00999999	          0.05712392	          0.06282186	          0.00999999	          0.00999999	          0.00999999	          0.01613869	          0.13427896	          0.12670586	          0.00999999	
